<svg id="Layer_1" data-name="Layer 1" xmlns="http://www.w3.org/2000/svg" viewBox="0 0 399.33 489.78"><defs><style>.cls-1{fill:#231f20;}.cls-2{fill:#fff;}.cls-3{fill:#fcb813;}</style></defs><path class="cls-1" d="M626.73,538.3c-1-5.53-3.49-4.56-3.49-4.56-13.67.29-20.27,2-20.27,2-16.38,4.26-17.15,1.94-17.15,1.94,1.93-9.12-1.65-7.85-1.65-7.85-2.43,1.93-8.44,9.59-8.44,9.59-1.74-.77-1.36-5.33-1.36-5.33a25.52,25.52,0,0,0,4.37-5.72,38.84,38.84,0,0,0,6.59-.68c5.91-3.2,8.34-6.5,8.34-6.5,4.85.78,7-2.61,8.05-4s20.45-15,22-16.67,3.59-6.11,3.59-6.11c1-7.47-3.59-23.27-4.85-27.34s-1.55-5.53-1.55-7a8,8,0,0,1,1.46-3.49c1.45-2.82-1.94-5.72-3.69-5.82s-.19,1.55-.19,1.55c2.52,1.65,2,3-.1,4.85s.1,7,.1,7c5.52,16.48,4.85,23.36,4.85,23.36s-13.19-1.45-17.36,0-14.93,10.18-14.93,10.18a19.62,19.62,0,0,0-6-1.45,28.71,28.71,0,0,0-1.16-4.56c-1.46-8.72.58-13.09,2.61-14.83s11.35-11.15,12.32-12.8-.88-1.36-.88-1.36c-9.79,4.08-11.92,7.86-14.93,11.93s-3.39,9.5-2.81,15.12.29,7.08.29,7.08c-5.14.49-9.11,5.72-9.11,5.72-1-1,3.78-21,4.56-23.66s6.1-6.49,6.88-7.07a9.92,9.92,0,0,0,2.81-3.59c1-1.94,8.34-15.9,8.82-17.26a28.67,28.67,0,0,0,1-7.08c0-2.13-5.81-9.11-6.78-9.69a1,1,0,0,0-1.46.39c-1.65,2.13-.09,2.91-.09,2.91,1.06,1.64,5.13,5.62,5.52,6.39s-.77,4.56-1.26,5.92-5.33,9.7-7.17,12.8-10.47,11.82-11.54,12.79-1.55.78-1.94,3.2-4.65,17.26-5.33,19.88a40.45,40.45,0,0,0-.87,6.59c-2.43,4.65-6.4,9.89-8,12.32a8.93,8.93,0,0,0-1.75,3.77c-.29,10.09,2.43,14.55,2.62,16.1a1.26,1.26,0,0,1-1.26,1.55,47.46,47.46,0,0,1-6-.29c-.78-.29-3-4.46-7.37-6.59a35.6,35.6,0,0,1-8.24-5.72,36.15,36.15,0,0,0-2.81-2.43,2,2,0,0,0-2.72.1c-6.59,4.95-15.31,16.19-17.06,18.91s-8.14,12.41-9.21,18.51-20.07,28.22-21.43,30.35a4.36,4.36,0,0,1-4.07,2.33c-1-.1-3.39,1.64-3.39,1.64,1.26,2.23,4,2.62,6.5,2.33s8.72-5.53,11.34-10.08,6.69-9.89,11.83-17.26,12.41-19.58,12.41-19.58c-.88,10.76,1.84,22,2.42,26.37s-1.84,4.94-1.84,4.94a1,1,0,0,0-1.26.68c-.39,1-1.65-.68-1.65-.68-3-.29-2.91.49-2.91.49-1.65,1.26-.78,1.74-.78,1.74.68,1.65,7.86,3.4,11.25-2.71s-.68-14.74-.68-14.74c.39-5.43.59-21.52.59-22.88s1.45-.68,1.45-.68c1.94.78,14,1.94,14,1.94-2.52,2.52-11.73,15.51-11.34,20.55s5.23,9.12,5.91,9.8,1.84,2,5.33.48,9.41-6.11,9.41-6.11C561.77,566,569,554,568.75,552.36s1.46-1.46,1.46-1.46c5.23-1.06,7.46-3.68,7.75-4s1.55-1.17,1.55.87a27.06,27.06,0,0,1-1.26,7.08,8.21,8.21,0,0,0-.19,3.68c-1.75,1.26-4.46,17-4.46,18.13s-2.42,2.62-2.42,2.62l1.55,1.07a13.1,13.1,0,0,0,3.2-.2,4.78,4.78,0,0,0,1.26-2.81c0-.87-.1-3.68.19-3.88s.68-1,.78-2.52a52.7,52.7,0,0,1,2.52-11.63,70.25,70.25,0,0,0,2.81-13.77c0-1.16,1.45-1.07,1.45-1.07,13-.09,36.94-6,36.94-6s1.36,3.11.39,23.08-6.69,25.59-7.95,28.5-1.46,4.56.39,6.11,7.56,1.55,8.72,1.45a3.14,3.14,0,0,0,2.23-1.84c.29-.58,0-2.23-1.94-1.84a9.22,9.22,0,0,1-4.65-.1c-1.46-.39-1.75-2.13-1.75-3.29s3.69-6.79,9.51-18.13S627.7,543.83,626.73,538.3Zm-46.15-15.9s2.23-1.46,2.13-3a13,13,0,0,0,5.24,1.94A5.23,5.23,0,0,1,580.58,522.4Zm.29-7.76a1.23,1.23,0,0,1,1.75-.09,33.58,33.58,0,0,1,3.1,1.93c.48.49,1,1.27.58,1.65a1.17,1.17,0,0,1-1.55,0,29.89,29.89,0,0,0-3.78-2.42A.75.75,0,0,1,580.87,514.64ZM606.66,491c5.91-2.43,15.9-.78,15.9-.78s.48,4.36-.19,6.79-20.85,14.93-20.85,14.93-.29-9.41-7.17-12.7C594.35,499.23,600.75,493.41,606.66,491Zm-26.08,9.21c.68-1.07,3.49-2.33,10.66,1.64,0,0,4,2.24,6.89,8.44a1.66,1.66,0,0,0,1.06,1,15.63,15.63,0,0,1-.09,2.81h-1.36s-.29-5.43-8.14-8.53S579.9,501.26,580.58,500.2Zm-58.17,39.17s6.11-8.63,7.08-10.38,1.55-.68,2,.1,6.89,7.56,8.44,8.34,1.74,1.74,1.74,1.74S528.23,538.69,522.41,539.37Zm24,9.59c-2.13.1-4.46,1-9.3,5.72s-5.82,8.63-5.14,10.77-.1,3.68-.78,3.78-2.62.09-2.62-4,3.3-9.31,12-19.29a51.84,51.84,0,0,0,7.27.58S548.59,548.87,546.45,549Z" transform="translate(-473.74 -108.33)"/><path class="cls-1" d="M869.67,580a11.57,11.57,0,0,1-13.18-8.34c3.88,3.4,7.85,3.69,9.89,2.91s6.88-7.37,6.69-13.86-10-16.87-12.32-19.2-10.56-6.5-16.38-7.46-8.63-6.4-8.63-6.4A26.62,26.62,0,0,0,827,515.28c-1.06-.88-1.35-1.36-3.1.29a86.18,86.18,0,0,0-5.62,6.79s-2.91,1.55-4,.77,1-3.1,1-3.68-1-2.52,0-3.11a3,3,0,0,0,1.17-1.94c.87-12.31-4-16.19-6.21-17.16a10.48,10.48,0,0,1-3.1-1.84c-2-1.26-8-2-8-2-.68-6.5-7.27-7-8.14-7.27a2.52,2.52,0,0,1-1.94-2.33c0-1.36-1.84-2.81-1.84-2.81-4-4-11.73-11.44-12.22-12.41a20.12,20.12,0,0,1-.77-3.59c-.2-.68-1.75-2.91-1.17-4.65a36,36,0,0,0,1.46-6.5c.19-1.94,1.35-7.76,1.45-9.6S774.27,440,773,439s-.19-1.75-.19-1.75,1.26-1.06.39-2.13-3.49,1.26-4.37,2.62.78,2.81,2.23,3.68a3.25,3.25,0,0,1,1.46,2.62c-.39,3.49-.29,9.11-.78,10s-2.52,5.82-2.52,5.82c-1.45,6.69,4.75,12.8,8.15,15.32a38.53,38.53,0,0,1,6,5.72s-.59,1.26-3.88-2.23a29.12,29.12,0,0,0-5.62-4.85c-4.85-.68-5.72,1.85-5.72,1.85,1.16,1.06,2.71.67,3.68.67a3,3,0,0,1,2.23.58c.39.49,8.82,6.69,8.82,6.69a7.18,7.18,0,0,1,.29,2.53,17.93,17.93,0,0,0-5.23,1.64c-9.7-8.14-15.42-16.48-15.71-17.35a9.84,9.84,0,0,1-.68-2.52c0-.68-.87-1.36-.87-2.33a4.38,4.38,0,0,0-.68-2.33c-.39-.67.2-9.59.1-12.41a10.6,10.6,0,0,0-.87-4.26c-3.79-5.33-5.53-8.92-5.72-10.76s-1.65-5.34-3.11-5.14-.87,1.84-.87,1.84c.39,4.07,6.4,14.25,7,15.32s1.07.68.78,3.2-1,9.89-1,11.73-.58,2.13.48,3.78,2.81,5.43,2.81,5.43c.1,3.39,8.15,11.34,8.15,11.34a11.58,11.58,0,0,0-3.49-1.45c-2.81-.87-9.6-3.59-11-3.2s-7.75-1.65-11.34-2-6.4,1.46-8.24,2.82-.87,1.45-.87,1.45c1.06.48,3.68.19,5.62-.87a5.19,5.19,0,0,1,3.78-.49c9.21,2.52,8.34.2,11.15,1.46s18.32,6.59,18.32,6.59a24.12,24.12,0,0,0,1.84,3.2c-3.58,2.33-7.65,11.44-10.08,16.29s1.84,6.69,1.84,6.69c.29-1.26,6-5.14,6.79-3.11s-4.56,4.08-4.56,4.08c6.5,4.46,21.62-4.85,22.88-5.63s1.17.39,1.17.39c-1.26,3.39,12.8,16.77,12.8,16.77-2.23,1.46-1.36,5.43-1.36,5.43a68.89,68.89,0,0,0-6.4-4.55c-1.65-1.07-10-5.82-11.64-6.89s-2.81-2-5-1.16-1.55,2.52-1.74,3.59.19,14.44.29,17.64a46.54,46.54,0,0,0,1.07,7.85c.38,2,1.84,10.38,2.42,13.29a26.89,26.89,0,0,1,.87,6.3,105,105,0,0,0,1.17,12.8c.58,3.39-.1,9.59-.1,9.59a5.72,5.72,0,0,1-3.69.88c-.38,0-2,.48-2.23,1.55s.1,1.45,1.85,1.55a16.44,16.44,0,0,0,5.91-1.36c1-.48.87-2.32,1.26-4a14.76,14.76,0,0,0,.19-7.28c-.77-2.81-.87-8.43-.77-11.63a32,32,0,0,0-.68-7.27c-.29-1.55-.58-2.91-.58-2.91,0-5-.87-13.57-.87-13.57.38-5.92-2-22.69-2-22.69,7.08,7,19.29,14.64,20.36,15.32a2,2,0,0,1,.68,2.13s-.29,1.94-.39,3.3a9.8,9.8,0,0,1-1.26,3.29s-1.65,2.62-2.62,4.66-1.74,6-2.42,8.82-2.72,13.48-3.2,17.94a12.49,12.49,0,0,1-3.59,7.27c.49,1.84,2.62.68,3.4.58s2.9-2.33,2.61-4.36a12.49,12.49,0,0,1,.1-3.88,4.8,4.8,0,0,0,.68-2c1.74-12.31,2.62-14.44,4.75-19.19s5.91-15.81,5.91-15.81c.68.39,2.91,3.49,4.08,4s3.29-.39,3.29-.39c1.26-.48,1.84,1.55,1.84,1.55,5.14,12.41,15.32,15.51,16.58,15.61s1.17,1,1.17,1a9,9,0,0,0,.77,3.69c-.48,3.1,1.26,5,3,7.56s8.92,12.12,10.76,14.25a9.72,9.72,0,0,0,5.14,2.91c.77.19,2.32.29,2.32-1.75s-1.45-1.65-1.45-1.65c-2.42.3-3.39-.48-3.39-.48a2.13,2.13,0,0,0-1.94-1.65c-5.53-6.79-11-19-11.64-20.65s1.26-.39,1.26-.39c2.91,2.52,12.71,4.56,12.71,4.56,2.9,7.76,7.36,11.44,9.11,12.7s6.3.87,8.92,1.26,2.52-1.26,2.52-1.26C872.19,579.36,869.67,580,869.67,580Zm-99.95-79s-1.94.48,4.26-7.47c0,0,1.17-1.84,4.17,1.26C778.15,494.82,772.24,498.12,769.72,501Zm20.94-11a23.54,23.54,0,0,0-7.86,1.75l-2.42-2.43A9.75,9.75,0,0,1,786,487c3.79-.49,5.14,1.84,5.14,1.84S791.82,490.07,790.66,490.07ZM812,510c-1.65,1-5.24,1.36-7.66-2.23s-4.36-6.2-4.36-6.2a1.89,1.89,0,0,1,0-2l.67-1.07s.59-1.06,2.52-.67,6.11,1.74,8.25,4.75S813.64,509.07,812,510Zm10.18,19.78s3.88-6.4,4.46-8.05c0,0,4.07,5.92,5.23,7.66,0,0,1,1.75-.1,1.75s-6-.58-8.24.39C823.52,531.57,823,530,822.17,529.82Zm17.45,16.29c-1.36,1.45-12.7-3.2-16.48-7.37A50.81,50.81,0,0,1,834,535.35S841,544.65,839.62,546.11Zm8.14,3.1s-4.07-9-5-11.44c0,0,13.87,3.88,20.26,10.66s7.76,10.18,6.6,11.35S860.75,559.58,847.76,549.21Z" transform="translate(-473.74 -108.33)"/><path class="cls-1" d="M687.52,565.94c3.58,7,5.85,10.45,5.85,11.16s-.18,1.79-1.07,2a5.71,5.71,0,0,1-2.87.06c-1.19-.24-1.37.78-1.19,1.14a2,2,0,0,0,1.37,1.13c.72.06,4.24.06,5.38-.89s1-2,.23-3.77-4.29-5.25-4.89-17.55.24-14.21.24-14.21,14.74,3.65,22.74,3.71c0,0,.9-.06.9.65a43.2,43.2,0,0,0,1.73,8.48,33.21,33.21,0,0,1,1.55,7.16c.06,1,.3,1.44.48,1.56a9.3,9.3,0,0,1,.12,2.38,2.88,2.88,0,0,0,.78,1.73,8,8,0,0,0,2,.13l.95-.66s-1.49-.9-1.49-1.61-1.67-10.39-2.75-11.17a5,5,0,0,0-.12-2.27,16.47,16.47,0,0,1-.77-4.35c0-1.26.77-.72,1-.54a8.55,8.55,0,0,0,4.78,2.45s1-.12.89.89,4.3,8.42,14.21,11a40.49,40.49,0,0,0,5.79,3.77c2.15,1,2.87.12,3.29-.3s3.4-2.93,3.64-6-5.43-11.11-7-12.66c0,0,7.41-.71,8.6-1.19,0,0,.9-.42.9.41s.12,10.75.35,14.09c0,0-2.5,5.32-.41,9.08s6.5,2.69,6.92,1.67c0,0,.54-.3-.48-1.07,0,0,.06-.48-1.79-.3,0,0-.77,1-1,.42a.63.63,0,0,0-.78-.42s-1.49-.36-1.13-3.05,2-9.61,1.49-16.24c0,0,4.48,7.53,7.64,12.06s5.67,7.83,7.29,10.63,5.43,6,7,6.21,3.22-.06,4-1.43c0,0-1.49-1.08-2.09-1a2.68,2.68,0,0,1-2.51-1.43c-.83-1.31-12.53-14.93-13.19-18.69s-4.6-9.73-5.67-11.4-6.45-8.6-10.51-11.64a1.24,1.24,0,0,0-1.67-.06,22.36,22.36,0,0,0-1.73,1.49,21.82,21.82,0,0,1-5.08,3.52c-2.68,1.32-4.06,3.88-4.54,4.06a28.9,28.9,0,0,1-3.7.18.77.77,0,0,1-.77-.95c.12-1,1.79-3.7,1.61-9.91a5.5,5.5,0,0,0-1.07-2.33,75.68,75.68,0,0,1-5-7.58,24.94,24.94,0,0,0-.54-4.06c-.42-1.61-3-10.75-3.28-12.24s-.54-1.38-1.19-2-6-6-7.11-7.88-4.12-7.05-4.42-7.88-1-3.17-.77-3.64,2.74-2.93,3.4-3.94c0,0,1-.48-.06-1.8a.61.61,0,0,0-.9-.23c-.59.35-4.18,4.65-4.18,6a17.69,17.69,0,0,0,.6,4.35c.3.84,4.84,9.44,5.44,10.63a6,6,0,0,0,1.73,2.21c.47.36,3.76,2.75,4.24,4.36s3.4,14,2.8,14.56c0,0-2.45-3.22-5.61-3.52a18.9,18.9,0,0,1,.18-4.36c.36-3.46.12-6.8-1.73-9.31s-3.17-4.84-9.2-7.34c0,0-1.13-.18-.53.83a88.89,88.89,0,0,0,7.58,7.88c1.25,1.08,2.51,3.77,1.61,9.14a17.08,17.08,0,0,0-.72,2.81,11.89,11.89,0,0,0-3.7.89s-6.62-5.37-9.19-6.27-10.69,0-10.69,0-.42-4.24,3-14.39c0,0,1.37-3.16.06-4.29s-1.62-2-.06-3c0,0,1-1-.12-1s-3.17,1.85-2.27,3.59a4.91,4.91,0,0,1,.9,2.15,14.78,14.78,0,0,1-1,4.29c-.78,2.51-3.58,12.24-3,16.84a19.9,19.9,0,0,0,2.21,3.76c1,1,12.9,9.43,13.56,10.27s2,2.92,5,2.45a16.24,16.24,0,0,0,5.13,4,24.49,24.49,0,0,0,4.07.41,15.85,15.85,0,0,0,2.68,3.53s.24,2.8-.83,3.28a60.19,60.19,0,0,0-5.2-5.91s-2.21-.77-1,4.84c0,0-.48,1.43-10.57-1.2,0,0-4.06-1.07-12.48-1.25,0,0-1.55-.6-2.15,2.8S683.94,559,687.52,565.94Zm23.94-31.46a8,8,0,0,0,3.23-1.2c-.06,1,1.31,1.85,1.31,1.85A3.23,3.23,0,0,1,711.46,534.48Zm4.3-3.47a18.54,18.54,0,0,0-2.33,1.5.71.71,0,0,1-.95,0c-.24-.24.06-.72.36-1a19.21,19.21,0,0,1,1.91-1.19.75.75,0,0,1,1.07.06A.45.45,0,0,1,715.76,531Zm-8.24-10.14c-4.24,2-4.42,7.82-4.42,7.82s-12.41-7.7-12.83-9.2a14.42,14.42,0,0,1-.12-4.18s6.15-1,9.79.48A31.84,31.84,0,0,1,707.52,520.87Zm2.93,3.88c-4.84,1.91-5,5.25-5,5.25h-.83a9.55,9.55,0,0,1-.06-1.73,1,1,0,0,0,.65-.6,11.85,11.85,0,0,1,4.24-5.19c4.42-2.45,6.15-1.68,6.57-1S715.28,522.84,710.45,524.75Zm29.49,20.71s.12-.6,1.07-1.07,4.9-4.66,5.2-5.14.66-1.13,1.25-.06,4.36,6.39,4.36,6.39A116.39,116.39,0,0,0,739.94,545.46ZM736.12,550a32.16,32.16,0,0,0,4.48-.36c5.37,6.15,7.4,9.37,7.4,11.88s-1.2,2.51-1.61,2.45-.9-1-.48-2.33-.18-3.7-3.16-6.62-4.42-3.47-5.73-3.53S736.12,550,736.12,550Z" transform="translate(-473.74 -108.33)"/><path class="cls-1" d="M602.33,576.89s-.06,1,1.56.78,4.41,0,5.49-.78a16.56,16.56,0,0,0,5.61-7.82s6-1.25,7.82-2.81c0,0,1.19-.77.78.24s-3.76,8.54-7.17,12.72a1.31,1.31,0,0,0-1.19,1,2.93,2.93,0,0,1-2.09.3s-.9-.24-.9,1,1,1.19,1.44,1.07a5.91,5.91,0,0,0,3.16-1.79c1.13-1.31,5.55-7.22,6.63-8.77s2.15-2.75,1.85-4.66a5.7,5.7,0,0,0,.48-2.27s-.06-.54.71-.6,7-2,10.21-9.61c0,0,.36-1.25,1.13-.95a3.62,3.62,0,0,0,2,.24c.71-.3,2.08-2.21,2.5-2.45,0,0,2.33,6.8,3.64,9.73s1.86,4.24,2.93,11.82a2.92,2.92,0,0,0,.42,1.25,7.69,7.69,0,0,1,.06,2.39,2.93,2.93,0,0,0,1.61,2.69c.48.06,1.79.78,2.09-.36a7.68,7.68,0,0,1-2.21-4.48c-.3-2.74-1.55-9.31-2-11a36.26,36.26,0,0,0-1.49-5.43c-.6-1.26-1.62-2.87-1.62-2.87a6,6,0,0,1-.77-2c-.06-.84-.24-2-.24-2a1.24,1.24,0,0,1,.42-1.31c.65-.42,8.18-5.14,12.53-9.44,0,0-1.49,10.33-1.25,14,0,0-.54,5.26-.54,8.36,0,0-.18.84-.36,1.79a20.51,20.51,0,0,0-.41,4.48,31.15,31.15,0,0,1-.48,7.17,9,9,0,0,0,.12,4.47c.24,1,.18,2.15.77,2.45a10,10,0,0,0,3.65.83c1.07,0,1.25-.29,1.13-.95s-1.13-1-1.37-1a3.48,3.48,0,0,1-2.27-.53,28.49,28.49,0,0,1-.06-5.91,65.6,65.6,0,0,0,.72-7.88,17,17,0,0,1,.53-3.88c.36-1.79,1.26-6.93,1.5-8.18a28.86,28.86,0,0,0,.65-4.84c.06-2,.3-10.21.18-10.86s.3-1.68-1.07-2.21-2.09.06-3.11.71-6.15,3.59-7.16,4.24a42.94,42.94,0,0,0-3.94,2.81s.54-2.45-.84-3.35c0,0,8.66-8.23,7.88-10.32,0,0-.06-.72.72-.24s10.09,6.21,14.09,3.46c0,0-3.28-1.25-2.81-2.51s4,1.14,4.18,1.91c0,0,2.63-1.13,1.14-4.11s-4-8.6-6.21-10a14.78,14.78,0,0,0,1.13-2s9.55-3.28,11.29-4,1.19.65,6.86-.9a3.19,3.19,0,0,1,2.33.3,4.9,4.9,0,0,0,3.46.54s.6-.07-.53-.9a7.22,7.22,0,0,0-5.08-1.73c-2.21.24-6.15,1.49-7,1.25s-5,1.44-6.75,2a7.13,7.13,0,0,0-2.15.9s5-4.9,5-7a37.58,37.58,0,0,1,1.74-3.34c.65-1,.29-1.19.29-2.33s-.41-5.67-.59-7.22.12-1.32.48-2,4.05-6.93,4.29-9.44c0,0,.36-1-.53-1.13s-1.79,2-1.91,3.16-1.2,3.35-3.53,6.63a6.42,6.42,0,0,0-.53,2.63c-.06,1.73.29,7.22,0,7.64a2.8,2.8,0,0,0-.41,1.43c0,.6-.54,1-.54,1.44a6.14,6.14,0,0,1-.42,1.55,46.36,46.36,0,0,1-9.67,10.68,11.18,11.18,0,0,0-3.22-1,4.39,4.39,0,0,1,.18-1.55s5.19-3.82,5.43-4.12a1.79,1.79,0,0,1,1.37-.36,2.93,2.93,0,0,0,2.27-.42s-.54-1.55-3.52-1.13a17.26,17.26,0,0,0-3.46,3c-2,2.15-2.39,1.38-2.39,1.38a23.84,23.84,0,0,1,3.7-3.53c2.09-1.55,5.91-5.31,5-9.43,0,0-1.25-3-1.55-3.58s-.24-4-.48-6.15a2,2,0,0,1,.9-1.61c.9-.54,1.91-1.44,1.37-2.27s-2.15-2.27-2.68-1.61.23,1.31.23,1.31.66.48-.11,1.07a4.75,4.75,0,0,0-1.79,3.23c.06,1.13.77,4.71.89,5.91a21.74,21.74,0,0,0,.9,4c.35,1.07-.6,2.45-.72,2.86a12.16,12.16,0,0,1-.48,2.21c-.3.6-5.07,5.2-7.52,7.65,0,0-1.13.89-1.13,1.73a1.55,1.55,0,0,1-1.2,1.43c-.54.18-4.59.48-5,4.48,0,0-3.71.47-5,1.25a6.55,6.55,0,0,1-1.91,1.13c-1.37.6-4.36,3-3.82,10.57a1.84,1.84,0,0,0,.72,1.2c.59.35,0,1.55,0,1.91s1.25,1.79.59,2.27-2.44-.48-2.44-.48a50.8,50.8,0,0,0-3.47-4.18c-1.07-1-1.25-.72-1.91-.18a16.44,16.44,0,0,0-5.37,7.64,8,8,0,0,1-5.31,3.94c-3.59.6-8.66,3.17-10.09,4.6s-7.46,7.82-7.59,11.82,2.87,8.06,4.12,8.54,3.71.29,6.09-1.8a7.14,7.14,0,0,1-8.12,5.14A1.3,1.3,0,0,0,602.33,576.89Zm58-53.85c1.85-1.91,2.57-.77,2.57-.77,3.82,4.89,2.63,4.59,2.63,4.59A24.91,24.91,0,0,0,660.36,523Zm-8-3.7a3.07,3.07,0,0,1,3.17-1.13A6,6,0,0,1,659,519.7l-1.49,1.49a14.76,14.76,0,0,0-4.84-1.07C651.94,520.12,652.36,519.34,652.36,519.34Zm-12.47,8.48a8.68,8.68,0,0,1,5.07-2.93c1.19-.24,1.55.42,1.55.42l.42.66a1.16,1.16,0,0,1,0,1.25s-1.19,1.61-2.69,3.82a3.53,3.53,0,0,1-4.71,1.37C638.51,531.82,638.57,529.67,639.89,527.82Zm-7.47,17.85c-1.37-.6-4.42-.24-5.07-.24s-.06-1.07-.06-1.07c.71-1.08,3.22-4.72,3.22-4.72.36,1,2.75,5,2.75,5C632.72,544.71,632.42,545.67,632.42,545.67ZM626,548a31.35,31.35,0,0,1,6.69,2.09c-2.33,2.56-9.31,5.43-10.15,4.53S626,548,626,548Zm-21.91,15c-.71-.71.12-2.8,4.06-7s12.48-6.57,12.48-6.57c-.6,1.49-3.1,7-3.1,7C609.5,562.92,604.78,563.76,604.06,563Z" transform="translate(-473.74 -108.33)"/><path class="cls-2" d="M527.14,146.3S578,114,687.49,113s157.12,33.3,157.12,33.3,22.86,198.38-46.37,262.54a18.5,18.5,0,0,1,7.24,18.77l26.93,25.95-23.19,8.3-10.56,19.07s-26.24-29.33-37.95-36.63c0,0-58.74,43.48-77.23,46.09S608,446,608,446s-24.65,15.08-36.32,35.54L560,459l-24.14-4.49s17.62-20.15,30.88-24.83c0,0-9.18-12,6-20.84,0,0-51.78-46.84-51.78-130.84S527.14,146.3,527.14,146.3Z" transform="translate(-473.74 -108.33)"/><path class="cls-3" d="M838.41,453.86,833.84,449c-.11-.11-12.79-13-25.57-20.5,1.75-7.53.62-13.75-4-16.8l-.73-.48a212.42,212.42,0,0,0,29.34-48.8c24-55.43,19.39-137,19.18-140.48l-.23-3.86-.33-5.52-.17-2.88-2.11-61.16-.17-4.68,0-1.17-1.07-.57-4.27-2.26-5-2.67-3.48-1.84c-.51-.27-55.14-27.06-151.31-27-95.86,0-149.34,26.71-149.84,27l-3.25,1.78-4.66,2.53-4.07,2.21-1,.55L521,143.5l-.29,4.48-4.24,68.36-.08.64-.38,3.6C507.84,297.49,534,359.38,535.16,362c7.76,18.31,18.75,34.82,31.14,49.45l-.54.35c-4.61,3.06-5.74,9.28-4,16.81-12.83,7.72-24.38,19.26-25.56,20.5l-4.58,4.83-.61.65-.62.65.87.2.94.21,6.92,1.59,19,4.34a125.27,125.27,0,0,0,8.69,17l3.91,6.3.52.84.43.69.44-.68.54-.84,4-6.21c.11-.14,11-14.83,25.69-24.19l4.29-2.73.58-.37.53-.34a350.11,350.11,0,0,0,62.75,39.66l3.17,1.47,4.52,2.1L682,496l.93.43.94-.43,3.72-1.73,4.54-2.09,3.18-1.47c25.86-12,48.13-25.08,67.14-39.61l.4.26.58.36,4.3,2.74c14.73,9.38,25.58,24,25.67,24.15l4,6.24.54.83.44.68.43-.68.52-.86,3.91-6.29a124.14,124.14,0,0,0,8.69-17l19-4.35,6.92-1.58.93-.22.87-.2-.62-.65ZM545.1,358.08c-1.06-2.46-26.29-62.31-18.44-136.46L527,218l.1-.86,4.26-68.57,4.66-2.53,3.28-1.79c2.23-1.22,53.72-25.63,144.53-25.64S827.65,143.15,830,144.38l3.5,1.86,5,2.67,2.22,64.24.64,9.42c.2,3.34,4.69,82.61-18.38,135.94a201.68,201.68,0,0,1-28.52,47.15q-3.93-2.25-8-4.3A193.52,193.52,0,0,0,814,356.31c23-52.62,16.93-145.48,16.93-145.48s-3.78-2-11-5v40.83L819,248.2l-1.1,1.89c-26.3,45.17-43.35,82.71-53.66,118.13l-1.79,6.13-1.44,5H687.66l3.49-9.08L695.47,359a809.49,809.49,0,0,1,34.71-77.61l1.18-2.31H674.55V202h16L804,202h5.84c-24-8.65-67.79-20.52-126.74-20.51-92.72,0-144.84,29.17-144.84,29.17C528,293.72,554.17,356,554.17,356c1.67,3.91,3.52,7.72,5.52,11.46V327.28h32.25v-52.2s-5.71,3.76-7.33,4.8l-13.81,9-11.16,7.26V230.58l3.52-2,4.36-2.43c8.21-4.57,16.39-10.57,25-16.91l.78-.58c1.59-1.17,3.21-2.36,4.85-3.55l2.36-1.71,1.92-1.4h53.41l0,125.23h22.51v52.11l-111.67,0a199,199,0,0,0,16.68,22.08q-4.1,2.08-8.07,4.37C563.29,391.73,552.6,375.78,545.1,358.08Zm26.7,118s-6.69-10.78-9.21-18.72l-22-5a147.29,147.29,0,0,1,23.56-19.39,126,126,0,0,0,25.34,23.69A89.93,89.93,0,0,0,571.8,476.09Zm118.79,5.29-3.18,1.47-4.52,2.1-4.53-2.1-3.17-1.48a338.79,338.79,0,0,1-61.05-38.6q4.43-2.17,9.27-4a344.58,344.58,0,0,0,59.45,37c24.44-11.18,45.71-23.36,64-37q4.77,1.8,9.13,3.95C737.52,456.93,715.83,469.7,690.59,481.38ZM659.72,438a6.78,6.78,0,0,0-4,1.56l-1.24-3.14a10.34,10.34,0,0,1,6.14-1.94c4.23,0,6.57,2.48,6.57,5.88,0,3.15-2.27,5.65-5,8.07l-1.72,1.45V450h7.06v3.61H654.25v-2.65l2.42-2.2c4.09-3.66,6.09-5.76,6.14-7.95C662.81,439.23,661.89,438,659.72,438Zm10.8,6.2c0-5.43,2.31-9.72,7.15-9.72,5,0,7,4.47,7,9.6,0,5.8-2.33,9.77-7.12,9.77S670.56,449.52,670.52,444.22Zm21.26-5.51-3.57,1.7-.72-3.29,5-2.31h3.63v18.74h-4.23V438.71ZM706,438a6.78,6.78,0,0,0-4,1.56l-1.24-3.14a10.38,10.38,0,0,1,6.14-1.93c4.24,0,6.58,2.47,6.58,5.87,0,3.15-2.28,5.66-5,8.08l-1.73,1.44V450h7.06v3.6H700.49V450.9l2.43-2.19c4.09-3.66,6.08-5.77,6.13-8C709.05,439.22,708.13,438,706,438Zm-20.52-14.17c-42.15.12-72.71,8.78-94.45,26.91,0,0-19.41-15.13-22.25-20.92-4.45-9.08.34-14,.34-14,31.19-20.51,71.2-31,115.08-31.31v0h1.7v0c43.88.26,83.88,10.78,115.08,31.28,0,0,4.67,4.89.21,14-2.83,5.79-22.23,20.93-22.23,20.93C757.18,432.6,727.59,424,685.45,423.84Zm122,33.49c-2.52,7.94-9.2,18.73-9.2,18.73a70.73,70.73,0,0,0-16.81-20,119.24,119.24,0,0,0,24.49-23.12c11.9,7.52,23.56,19.38,23.56,19.38Zm-145-84.72h8.82V334H648.76l0-116.86v-8.37H604.87l-2.38,1.72c-1.89,1.38-3.75,2.74-5.59,4.1-8.85,6.49-17.2,12.62-25.8,17.41l-4.36,2.42V283.3l13.81-9c6.57-4.27,12.74-8.36,18.48-12.56V334H566.8v38.6h8.83ZM735,271.74l10.22-18.56H734.94Zm-44.46-63h-8.83v63.58h46.15v-25.9H757a847.75,847.75,0,0,0-54.87,114.91l-4.32,11.24h57.78l1.79-6.15c10.46-35.94,27.71-73.94,54.28-119.59l1.1-1.89V208.72H804ZM680.27,444.16c0-4.16-.9-6.35-2.65-6.35s-2.71,2.05-2.68,6.4,1,6.35,2.71,6.35S680.27,448.42,680.27,444.16Z" transform="translate(-473.74 -108.33)"/><path class="cls-3" d="M742.23,174.11l14-39.49L745.1,133.2l-9.17,30.66.78-31.72-13-1.64,2.62,41.6Zm37,7.35,1.4-6-12.74-2.81,3-13,12.33,2.7,1.37-6-12.32-2.7,2-8.82L787,147.55l1.4-6.05-24.71-5.43L754.39,176Zm12,3.51,11.07-32.44L800,187.81l15,4.86,13.26-38.83-9.15-3-9.64,28.23,2.13-30.66-16.12-5.24L782.2,182ZM715.85,171l.26-6.16-13.06-.51L703.6,151l12.62.49.25-6.11-12.62-.49.36-9,12.88.5.26-6.2-25.33-1-1.66,40.89ZM577.6,184.78a10.09,10.09,0,0,0,3.61-5.36,11.05,11.05,0,0,0-.22-5.92l-5.82-18.92a12.31,12.31,0,0,0-3.55-6.07,10.18,10.18,0,0,0-5.83-2.16,26,26,0,0,0-9,1.29,21.84,21.84,0,0,0-8.12,4,9.68,9.68,0,0,0-3.23,11.24l6,19.5a11.8,11.8,0,0,0,1.53,3.36,9,9,0,0,0,3.24,2.84,13.34,13.34,0,0,0,5.71,1.3,24.22,24.22,0,0,0,7.41-1.13A22.93,22.93,0,0,0,577.6,184.78Zm-12.55-2.49a3,3,0,0,1-1.48-2l-7-22.89a2.59,2.59,0,0,1,.16-2.33,3.73,3.73,0,0,1,2.13-1.32,3.4,3.4,0,0,1,2.43,0,3.34,3.34,0,0,1,1.53,2.21l6.87,22.37a3.08,3.08,0,0,1-.08,2.6,4.24,4.24,0,0,1-4.53,1.35Zm32.46-2-7.17-33.46,16.19,31.63L622,175.32l-8.57-40.06L604,137.17l6.23,29.13-14-27.55-16.63,3.38,8.57,40.07Zm53.94-8.59-.79-6.12-13,1.6L636,153.89l12.53-1.54-.79-6.08-12.53,1.55-1.16-9,12.78-1.57-.79-6.16-25.14,3.11,5.26,40.6Zm3.17-37.24a10.32,10.32,0,0,0-1.32,6.21,8.94,8.94,0,0,0,1.24,4.43c.73,1.16,2.43,2.62,5.08,4.4l8.92,5.7a19.74,19.74,0,0,1,4.1,3.13,2.91,2.91,0,0,1,.51,1.58l.05,1.21c.08,1.48-.13,2.45-.6,2.93a4.59,4.59,0,0,1-4.83.22,2.65,2.65,0,0,1-.93-2.08l-.34-7.38-12.26.54.34,7.38a9.69,9.69,0,0,0,.81,3.4,6.45,6.45,0,0,0,1.89,2.66,12.8,12.8,0,0,0,5.28,2.38,27.17,27.17,0,0,0,7.47.59,25.36,25.36,0,0,0,9.22-1.89,10.83,10.83,0,0,0,5.18-4.13q1.46-2.48,1.24-7.11a8.4,8.4,0,0,0-1.88-5.51,35,35,0,0,0-6.16-4.65q-9.18-5.85-10.67-7.08a2.74,2.74,0,0,1-1.14-2l-.06-1.32a2.43,2.43,0,0,1,.75-2,3.68,3.68,0,0,1,2.36-.79,4,4,0,0,1,2.58.59,2.7,2.7,0,0,1,.79,2.18l.29,6.17,12.19-.54-.31-6.64a7.36,7.36,0,0,0-4-6.18c-2.55-1.51-6.37-2.17-11.47-1.94a26.68,26.68,0,0,0-9.36,1.79A11.07,11.07,0,0,0,654.62,134.46Z" transform="translate(-473.74 -108.33)"/><path class="cls-3" d="M588.32,419.4a.78.78,0,0,0-.41,1.17L594,433.1a.76.76,0,0,0,1.16.4l11.75-5.71a.77.77,0,0,0,.4-1.17l-1.9-3.92-3.92,1.91q-6.27,3-8.56-1.65l16.46-8,4.57,9.41q2.29,4.69-4,7.74l-13.32,6.49q-6.27,3-8.56-1.66l-6.85-14.1q-2.29-4.69,4-7.75l13.32-6.48c4.17-2,7-1.48,8.55,1.65Z" transform="translate(-473.74 -108.33)"/><path class="cls-3" d="M635.85,407.5a.77.77,0,0,0,.64-1.05l-.81-3.39a.76.76,0,0,0-1-.64l-13.56,3.23,3.64,15.26q1.21,5.08-5.57,6.7l-6.07-25.43,21.2-5.05q6.76-1.62,8,3.46l1.21,5.09c.77,3.24-.89,5.43-5,6.55l8.66,8.71-8.48,2-13-13Z" transform="translate(-473.74 -108.33)"/><path class="cls-3" d="M671.19,408.21l-14.78,1,.36,5.22c.23,3.48-2,5.37-6.59,5.7l-1.45-20.87q-.36-5.22,6.6-5.69l21.74-1.5,1.79,26.08-7,.48Zm-.72-10.43-14.78,1,.36,5.22,14.78-1Z" transform="translate(-473.74 -108.33)"/><path class="cls-3" d="M704.71,402.64l.2-3.48a.76.76,0,0,0-.81-.92l-13.92-.82-.93,15.66q-.3,5.22-7.26,4.81l1.53-26.1,21.75,1.28c4.65.28,6.86,2.15,6.66,5.63l-.31,5.22q-.32,5.22-7.27,4.81L693,408.06q.32-5.22,7.27-4.8l3.48.2A.77.77,0,0,0,704.71,402.64Z" transform="translate(-473.74 -108.33)"/><path class="cls-3" d="M721.37,410.47l-2.08,10.24-6.83-1.38,5.21-25.62q6.84,1.4,5.79,6.52l-1,5.12,14.51,2.95L739,398.05l6.83,1.4-4.16,20.49q-1.05,5.13-7.88,3.73l2.08-10.24Z" transform="translate(-473.74 -108.33)"/><path class="cls-3" d="M752,401.41l6.6,2.24-6.72,19.81q-1.68,4.95-8.28,2.71Z" transform="translate(-473.74 -108.33)"/><path class="cls-3" d="M768.89,421.73,765,404.89l3.07,1.62a8.32,8.32,0,0,1,4.57,6.34l1.87,6.7,6.59-2.24a8.27,8.27,0,0,1,7.79.16l3.09,1.62-16.11,6.29,3.92,16.84-6.93-3.65-2.57-11-10.54,4.11L752.77,428Z" transform="translate(-473.74 -108.33)"/><path class="cls-2" d="M576.3,342.41h32.25l0-99.11c-9,8.79-20.18,16.22-32.29,24.11V239.25c10.93-6.09,21.14-14,32.29-22.08h32.06l0,125.23h22.56v21.85H576.31Zm228.35-99.63c-23.74,40.76-43.21,80.64-55.08,121.41H711.13c16.38-42.57,37-84.47,61.48-126.14h-53V264h-28.5V217.12l113.49,0Z" transform="translate(-473.74 -108.33)"/><path class="cls-1" d="M579.83,241.34c8.61-5,16.73-10.94,25.3-17.22l4.57-3.35H637l0,121.63V346h22.55v14.65H579.91V346h32.24V234.76l-6.11,6c-7.32,7.13-15.94,13.26-26.18,20v-19.4Zm114.92-20.62,106.29,0V241.8c-26.18,45.06-43.44,82.92-54.17,118.79H716.39c15.67-39.91,35.11-79.46,59.33-120.72l3.18-5.42H716.06v25.9h-21.3V220.72Z" transform="translate(-473.74 -108.33)"/></svg>