<?xml version="1.0" standalone="no"?>
<!DOCTYPE svg PUBLIC "-//W3C//DTD SVG 20010904//EN"
 "http://www.w3.org/TR/2001/REC-SVG-20010904/DTD/svg10.dtd">
<svg version="1.0" xmlns="http://www.w3.org/2000/svg"
 width="491.000000pt" height="491.000000pt" viewBox="0 0 491.000000 491.000000"
 preserveAspectRatio="xMidYMid meet">
<metadata>
Created by potrace 1.14, written by Peter Selinger 2001-2017
</metadata>
<g transform="translate(0.000000,491.000000) scale(0.100000,-0.100000)"
fill="#000000" stroke="none">
<path d="M2338 4905 c-2 -1 -55 -5 -118 -9 -63 -3 -126 -8 -140 -10 -14 -3
-50 -7 -80 -10 -371 -41 -775 -148 -990 -264 -36 -19 -68 -38 -73 -42 -8 -7
-12 -55 -22 -230 -3 -58 -7 -127 -10 -155 -2 -27 -7 -102 -10 -165 -4 -63 -8
-135 -10 -160 -16 -185 -19 -252 -19 -380 0 -253 23 -457 75 -685 12 -49 23
-100 25 -112 11 -57 97 -300 135 -379 52 -110 128 -232 212 -344 36 -47 62
-87 58 -90 -26 -18 -41 -60 -41 -111 0 -51 -3 -59 -27 -75 -81 -52 -273 -224
-273 -245 0 -3 26 -12 58 -18 31 -6 91 -19 132 -29 l75 -18 58 -109 59 -109
-21 -80 c-11 -45 -23 -96 -26 -114 -5 -28 -47 -107 -66 -122 -33 -27 -42 -114
-19 -184 17 -50 14 -57 -27 -53 -21 2 -43 12 -53 24 -9 11 -36 33 -60 48 -25
15 -60 41 -78 56 -18 16 -36 29 -41 29 -19 0 -201 -202 -201 -224 0 -4 -11
-23 -25 -44 -13 -20 -33 -63 -44 -95 -33 -95 -218 -339 -267 -351 -36 -9 -24
-30 19 -34 59 -5 85 24 266 293 23 33 45 65 50 71 5 6 16 25 25 42 23 45 33
46 32 4 0 -20 3 -59 7 -87 18 -130 19 -146 7 -160 -8 -9 -21 -13 -32 -9 -10 3
-26 0 -34 -7 -13 -11 -13 -14 7 -24 54 -29 120 31 113 104 -2 21 -7 50 -12 63
-5 12 -7 39 -6 58 1 19 3 70 3 113 l1 79 38 -6 c20 -3 52 -5 70 -6 17 0 32 -4
32 -10 0 -5 -16 -32 -35 -59 -41 -56 -65 -110 -65 -144 0 -36 55 -107 83 -107
13 0 44 13 70 30 25 16 70 39 99 51 86 36 171 108 184 156 3 13 11 23 18 23 6
0 28 9 49 20 20 11 38 20 40 20 4 0 -13 -92 -38 -200 -15 -67 -23 -94 -36
-124 -6 -14 29 -16 40 -2 10 12 19 49 26 104 2 17 13 65 24 105 11 39 22 84
24 99 4 36 12 42 55 44 49 2 107 11 221 35 52 10 97 19 101 19 13 0 17 -60 6
-68 -6 -5 -31 -16 -56 -25 -84 -31 -147 -112 -137 -175 7 -43 38 -72 69 -66
23 5 23 5 -1 -13 -14 -10 -33 -18 -43 -18 -28 0 -16 -20 12 -21 28 -1 68 30
80 62 5 11 24 25 44 31 35 11 37 10 30 -10 -15 -50 -46 -99 -69 -109 -14 -6
-25 -15 -25 -20 0 -15 23 -8 47 14 31 29 29 13 -7 -58 -16 -32 -30 -64 -30
-70 0 -31 88 -57 115 -34 24 20 17 30 -18 30 -66 0 -66 19 1 138 22 38 47 91
56 118 9 27 29 62 46 77 16 16 30 32 30 37 0 4 15 17 33 27 l33 20 27 -78 c15
-42 30 -99 33 -126 6 -47 27 -84 41 -70 3 4 1 13 -5 19 -7 7 -12 26 -13 43 0
33 -28 141 -50 192 -15 36 -21 28 69 94 l43 31 -6 -98 c-3 -55 -10 -137 -14
-183 -10 -121 -6 -141 31 -141 17 0 27 4 23 10 -3 5 -13 10 -21 10 -12 0 -17
14 -16 40 1 32 13 141 17 160 15 73 18 99 19 163 1 50 -2 71 -12 75 -13 5 -60
-16 -115 -52 -23 -16 -27 -16 -27 -3 0 13 40 70 61 87 3 3 8 11 10 17 3 10 11
9 34 -3 16 -8 50 -17 75 -20 42 -5 44 -4 26 10 -15 12 -16 16 -5 16 8 0 20 -5
27 -12 9 -9 13 -8 17 5 7 16 -18 80 -43 109 -8 9 -12 22 -10 29 6 19 119 55
172 54 47 0 50 -1 58 -33 7 -24 28 -47 85 -90 41 -31 83 -61 92 -67 9 -5 32
-20 52 -32 19 -13 42 -23 51 -23 20 0 50 -39 41 -53 -3 -6 -15 2 -25 16 -18
25 -50 38 -47 19 6 -36 -2 -42 -42 -37 -23 3 -45 7 -49 10 -5 3 -40 8 -78 11
l-70 6 -12 -58 c-22 -103 -12 -169 37 -246 30 -49 30 -68 -2 -68 -31 0 -33
-16 -3 -23 22 -6 58 8 58 22 0 5 -11 33 -25 63 -19 42 -26 77 -30 149 -6 108
-1 133 23 124 20 -8 34 -11 99 -21 26 -5 51 -9 56 -10 4 -1 18 -2 30 -3 22 -1
26 -10 48 -108 20 -85 29 -109 43 -111 12 -3 16 0 11 7 -8 14 -45 166 -45 187
0 12 5 11 28 -3 15 -10 31 -24 36 -32 19 -30 79 -78 114 -91 20 -7 49 -22 63
-33 35 -25 67 -15 84 26 13 30 11 36 -21 93 l-34 62 40 4 c51 5 54 -4 46 -129
-8 -108 3 -134 49 -125 33 6 32 20 -2 24 -29 3 -31 14 -18 83 2 11 4 37 4 58
1 38 1 38 77 -75 82 -122 123 -168 154 -168 27 0 36 20 11 27 -30 8 -132 146
-178 243 -40 83 -126 190 -152 190 -12 0 -25 -9 -100 -67 -50 -39 -62 -32 -55
32 6 49 4 59 -21 97 -16 23 -39 82 -51 131 -19 74 -31 98 -67 141 -48 55 -87
121 -87 146 0 22 46 63 100 90 69 35 206 118 292 177 42 29 79 53 80 53 2 0 3
-21 2 -47 -2 -50 37 -146 78 -190 24 -26 21 -28 -19 -12 -45 17 -165 40 -209
40 -41 1 -84 -17 -84 -35 0 -4 15 -5 33 -2 69 13 148 2 254 -35 121 -43 122
-44 81 -110 -18 -30 -43 -75 -55 -100 -19 -42 -20 -49 -7 -68 l15 -21 29 22
c35 26 55 15 22 -12 l-22 -19 21 -6 c30 -10 86 3 150 35 l56 27 17 -31 c9 -17
39 -55 66 -85 38 -42 47 -58 40 -71 -5 -10 -6 -21 -2 -26 4 -4 -4 -1 -18 9
-14 9 -63 39 -110 66 -120 70 -123 68 -116 -102 3 -73 8 -143 11 -157 21 -91
35 -203 37 -301 3 -112 3 -113 -21 -119 -14 -3 -27 -12 -29 -19 -4 -11 5 -13
37 -8 24 3 46 8 49 12 9 9 1 231 -11 315 -4 25 -9 95 -12 155 -5 107 -12 167
-20 192 -5 14 21 18 27 4 4 -11 82 -70 138 -106 48 -31 51 -54 15 -126 -24
-46 -55 -171 -69 -278 -3 -24 -13 -55 -21 -67 -19 -30 -19 -34 4 -34 27 0 37
18 44 75 13 101 19 122 64 248 l46 127 23 -21 c14 -13 29 -19 41 -15 14 4 24
-5 42 -40 28 -53 94 -113 133 -121 26 -5 37 -26 38 -68 0 -26 133 -206 163
-220 25 -13 47 -14 47 -2 0 4 0 12 0 17 0 6 -8 10 -19 10 -29 0 -74 53 -119
142 -23 44 -41 83 -39 85 2 2 17 -3 33 -12 16 -8 43 -18 61 -21 25 -5 39 -18
67 -63 19 -31 45 -62 58 -69 25 -12 107 -24 120 -16 16 10 -6 34 -32 34 -44 0
-87 20 -106 47 -16 25 -16 26 2 18 64 -27 93 -16 125 46 37 73 23 127 -60 228
-44 54 -90 84 -171 111 -84 28 -109 47 -130 94 -10 23 -34 59 -55 80 l-37 40
-44 -47 c-44 -47 -83 -64 -69 -29 21 54 26 141 10 180 -16 37 -68 77 -120 91
-27 7 -45 20 -56 40 -11 18 -28 31 -49 36 -17 4 -34 14 -37 23 -3 10 -37 49
-75 87 -37 39 -71 82 -74 95 -3 14 -8 36 -11 49 -5 20 -3 22 13 13 31 -17 162
-154 200 -210 19 -29 36 -52 38 -52 6 0 47 68 96 160 l45 84 75 18 c41 10 82
19 90 21 8 3 34 8 58 12 23 4 42 11 42 16 0 15 -144 149 -222 207 l-77 57 0
53 c1 40 -5 62 -24 90 l-25 38 29 35 c168 210 324 553 379 837 29 148 31 155
55 352 18 145 24 533 12 780 -6 112 -15 353 -22 560 -2 41 -3 84 -4 96 -1 16
-26 33 -113 76 -168 84 -469 175 -700 213 -18 3 -44 7 -58 10 -33 6 -75 13
-130 20 -25 3 -56 7 -70 10 -23 4 -88 10 -210 21 -52 5 -588 13 -592 9z m-435
-3552 c10 -32 20 -66 22 -76 2 -10 7 -27 10 -37 3 -11 10 -42 14 -69 l8 -51
-82 1 c-90 1 -116 -8 -194 -68 -43 -32 -74 -40 -97 -25 -14 9 -33 75 -29 99 2
10 4 28 4 41 1 14 29 51 76 100 41 42 75 80 75 84 0 28 -90 -22 -134 -73 -47
-55 -59 -95 -54 -185 2 -50 0 -74 -8 -74 -6 0 -27 -11 -47 -24 l-35 -24 4 26
c19 103 45 197 60 215 53 63 186 188 239 224 l60 41 45 -33 c37 -28 48 -44 63
-92z m1485 97 c29 -18 33 -24 27 -50 -12 -55 4 -91 69 -155 33 -33 50 -50 36
-39 -56 48 -77 56 -102 43 -23 -13 -23 -13 14 -24 20 -5 52 -22 70 -37 18 -15
36 -28 41 -28 14 0 7 -28 -9 -34 -30 -12 -44 -6 -85 37 -101 103 -129 157
-129 249 0 65 12 72 68 38z m-1343 -150 c59 -38 150 -95 204 -125 l98 -55 -3
-57 c-1 -30 1 -65 5 -77 12 -32 -12 -75 -72 -131 -78 -72 -86 -78 -131 -100
-48 -24 -67 -66 -56 -126 4 -22 5 -39 2 -39 -3 0 -18 12 -34 27 -27 26 -28 26
-48 8 -20 -19 -21 -18 -27 3 -3 12 -13 23 -22 23 -57 4 -148 -5 -226 -21 -49
-11 -104 -20 -123 -20 -33 0 -34 1 -29 36 8 56 -18 56 -68 -1 -36 -42 -43 -46
-49 -30 -4 12 2 31 19 55 20 29 33 37 57 38 18 0 52 15 83 36 28 20 58 36 67
36 8 0 23 10 34 21 10 12 68 57 127 102 147 109 157 132 127 282 -16 77 -19
89 -35 135 -17 47 -17 50 -10 50 2 0 52 -31 110 -70z m745 -193 c0 -32 54
-135 90 -172 21 -22 33 -49 43 -97 l14 -68 -27 17 c-25 14 -28 21 -26 68 1 42
-4 58 -27 88 -29 38 -87 76 -87 57 0 -6 20 -32 45 -58 39 -40 45 -52 45 -89 0
-63 -23 -71 -86 -29 -42 28 -58 33 -102 32 -49 -1 -52 0 -52 24 0 14 9 53 19
86 13 42 15 67 9 78 -12 21 -16 17 57 54 73 38 85 39 85 9z m830 3 c20 -12 12
-17 -42 -25 -32 -5 -48 -4 -48 3 0 26 61 41 90 22z m-1675 -50 c0 -14 -3 -32
-7 -41 -8 -19 -180 -139 -199 -139 -7 0 -10 3 -6 6 9 9 -18 69 -42 95 l-21 22
33 24 c70 53 132 73 202 63 34 -4 40 -8 40 -30z m469 29 c23 -11 24 -16 21
-78 -2 -36 -8 -77 -13 -91 -14 -35 -86 -110 -107 -110 -26 0 -13 22 29 50 28
18 34 26 22 28 -15 3 -15 6 1 32 15 26 15 35 4 80 -13 51 -9 100 9 100 5 0 20
-5 34 -11z m116 -54 c22 -12 29 -11 56 6 l32 19 5 -23 c4 -12 -2 -55 -12 -94
-10 -40 -17 -73 -15 -75 1 -2 -14 -2 -34 0 -20 2 -65 -3 -100 -11 -58 -13 -62
-13 -49 2 33 37 48 83 44 129 -7 77 3 83 73 47z m957 9 c1 -5 -14 -20 -34 -33
l-37 -24 15 24 c9 13 19 30 23 37 8 14 28 12 33 -4z m314 -57 c44 -29 61 -74
36 -92 -27 -20 -55 -7 -88 42 -48 69 -18 98 52 50z m-2176 -16 c35 -20 89 -93
83 -112 -3 -9 -10 -2 -19 16 -10 21 -34 40 -79 62 -36 18 -69 34 -74 36 -5 2
-6 9 -2 16 10 15 47 8 91 -18z m705 -95 c0 -2 -8 -10 -17 -17 -16 -13 -17 -12
-4 4 13 16 21 21 21 13z m-760 -51 c16 -19 1 -19 -24 0 -16 12 -17 15 -4 15 8
0 21 -7 28 -15z m1153 1 c18 -8 41 -21 52 -30 17 -13 18 -17 6 -25 -8 -5 -19
-21 -25 -36 l-11 -26 -58 37 c-55 37 -75 63 -62 84 9 14 60 12 98 -4z m-426
-33 c2 -6 -3 -10 -14 -8 -10 2 -22 4 -26 4 -5 1 -5 6 -2 12 9 13 37 8 42 -8z
m-723 -9 c23 -9 9 -24 -21 -24 -21 0 -24 2 -13 15 14 17 13 17 34 9z m1306 -9
c0 -4 -19 -14 -42 -25 -23 -10 -50 -29 -61 -42 -18 -23 -18 -23 0 10 10 19 29
40 43 47 25 14 60 20 60 10z m-522 -25 c12 -19 11 -20 -8 -8 -20 13 -27 28
-12 28 4 0 13 -9 20 -20z m1682 -62 c0 -5 -20 -8 -45 -8 -50 0 -52 4 -28 54
l16 35 28 -37 c16 -20 29 -40 29 -44z m-1856 44 c8 -14 -32 -67 -51 -67 -26 0
-27 30 -2 54 24 22 44 27 53 13z m-1080 -106 l29 -26 -92 0 -91 0 36 54 36 55
27 -28 c14 -16 39 -40 55 -55z m1761 15 c-3 -6 -11 -8 -17 -5 -6 4 -5 9 3 15
16 10 23 4 14 -10z m1220 -43 c35 -58 37 -68 12 -68 -26 0 -129 52 -134 67 -4
10 47 30 82 32 13 1 28 -11 40 -31z m130 -11 c82 -29 188 -122 197 -173 5 -30
-50 -20 -119 21 -85 51 -90 56 -118 120 -23 50 -24 57 -8 50 10 -4 32 -12 48
-18z m-1003 -17 l17 -30 -51 0 -52 0 29 30 c16 17 31 30 34 30 3 0 14 -14 23
-30z m-1162 -22 c0 -5 -11 -8 -25 -8 -28 0 -29 3 -14 31 10 20 11 20 24 2 8
-10 15 -21 15 -25z m-862 -27 c19 -2 4 -21 -17 -21 -23 0 -98 -64 -116 -101
-8 -15 -15 -44 -15 -64 0 -35 -16 -48 -26 -20 -13 32 8 83 59 147 42 54 57 66
77 63 14 -1 31 -3 38 -4z m844 -36 c0 -5 -5 -11 -11 -13 -6 -2 -11 4 -11 13 0
9 5 15 11 13 6 -2 11 -8 11 -13z m-125 -27 c-20 -51 -147 -126 -147 -88 0 27
118 120 152 120 5 0 2 -15 -5 -32z m1251 -7 c36 -45 49 -85 31 -96 -9 -6 -11
-2 -6 14 6 25 -30 73 -78 102 l-30 19 26 0 c18 0 35 -12 57 -39z"/>
</g>
</svg>
