<svg id="Layer_1" data-name="Layer 1" xmlns="http://www.w3.org/2000/svg" viewBox="0 0 576.19 129.68"><defs><style>.cls-1{fill:#231f20;}.cls-2{fill:#8dc63f;}.cls-3{fill:#f58220;}.cls-4{fill:#fff;}</style></defs><path class="cls-1" d="M680.86,250.54c-2.75-3.71-8.56-8.14-20.64-8.14l-221.57,0h-.24c-2.85,0-12.81.42-21,5.83l-.48.32-.41-.4a19,19,0,0,0-3.94-2.88c-2.05-1.14-5.5-2.53-14.12-3.18H310c-.49,0-12,.07-21.22,6.31l-.47.32-.42-.4c-5.56-5.17-13.78-5.95-18.19-5.95h-50a2.18,2.18,0,0,0-2,1.24l-1.42,3-.35.75-.69-.46c-7.21-4.72-17.45-5.15-20.4-5.17-3.87-.06-7.19-.09-10.15-.09-15.9,0-21.64.85-27.81,2.64a28.61,28.61,0,0,0-14.31,9.8l-.21.29-.09.13-.19.33c-9.63,16.19-11.87,22.69-13.85,28.43-.6,1.76-1.23,3.58-2.08,5.67a13.52,13.52,0,0,0,.64,12.36,16.74,16.74,0,0,0,7.76,6.68l1.51.68-1.53.64a23.21,23.21,0,0,0-5.1,3,23.56,23.56,0,0,0-6.33,7.59l-6.42,11.88a21.72,21.72,0,0,0-2.23,6.24,13.83,13.83,0,0,0,2.69,11.28l.34.43-.32.45a41.25,41.25,0,0,0-4.15,7l-5.16,11.11a2.16,2.16,0,0,0,2,3.07h28.89a21.26,21.26,0,0,0,10.16-2.2,17.75,17.75,0,0,0,7.48-7.85l2.88-5.47.18-.33.37-.05c1.8-.25,3.66-.44,5.52-.57s3.64-.18,5.44-.18h34.77a24.51,24.51,0,0,0,8.95-2.33,13.2,13.2,0,0,0,4.51-3.8l.51-.63.57.58a19,19,0,0,0,7.76,4.68,32.77,32.77,0,0,0,10.3,1.51h47.39a29,29,0,0,0,8.67-1.39,40.33,40.33,0,0,0,6.15-2.54l.4-.2.37.27a17.49,17.49,0,0,0,5.62,2.78,28.89,28.89,0,0,0,8.23,1.08h22.19l-.58,1.06-6.3,11.64a2.15,2.15,0,0,0,1.9,3.19h26a2.15,2.15,0,0,0,1.9-1.13l7.86-14.39.2-.37h76.49a2.21,2.21,0,0,0,1.33-.46l7.61-6,.58-.45.44.58a13.57,13.57,0,0,0,4.21,3.68c3.11,1.77,7,2.6,12.18,2.6H569.5c.07,0,7.23-.17,13-3.9l1-.64.42-.27.4.3c3.91,3,9.27,4.52,15.93,4.52H656a2.16,2.16,0,0,0,1.94-1.23c2-4,5.86-12.36,9-19l3-6.43c4-8.56,3.75-20.73-3.3-27.34,3.38-7.4,15.88-34.83,16.75-37.66A14.55,14.55,0,0,0,680.86,250.54Z" transform="translate(-107.68 -241.66)"/><path class="cls-2" d="M615.46,300.9H589.21l23-48.52h44.52s15.06-.61,13.87,9c-.76,5.75-17.8,39.42-17.8,39.42H624.6l22.83-46.74-8.75,3.23s-3.17,1.53-4.31,4Z" transform="translate(-107.68 -241.66)"/><path class="cls-2" d="M518.51,252.37h26.26l-13.16,28.48-34.35,20h-17.4s-15.05.61-13.87-9c.76-5.74,17.8-39.41,17.8-39.41h25.59S493.79,285.33,492.47,288s2.26,2.94,3.21,2.94h4.41Z" transform="translate(-107.68 -241.66)"/><path class="cls-2" d="M459.06,291h-23.6s-5.32.46-3.55-4l2.92-6.16h27.4l4.7-9.68H454.11s-9.89-.54-16.87,4.61l5.07-10.69s.89-2.84,6.22-2.84H472l4.95-9.84H438.64s-15.86-.39-20.8,9.84L405.78,288s-6.09,10.92,12.06,12.84h36.53Z" transform="translate(-107.68 -241.66)"/><path class="cls-2" d="M587.86,291h-23.6s-5.32.46-3.55-4l2.92-6.16H591l4.7-9.68H582.91s-9.89-.54-16.87,4.61l5.07-10.69s.89-2.84,6.22-2.84H600.8l5-9.84H567.44s-15.86-.39-20.81,9.84l-12,25.75s-6.09,10.92,12,12.84h36.54Z" transform="translate(-107.68 -241.66)"/><path class="cls-2" d="M340.28,283.7H366l-2.41,5.46s-2.16,3.15,3.68,3.15c5.37,0,6.21-3.15,6.21-3.15l1.91-4s2.27-4.07-12.56-5.07-17.26-6.38-15.61-10.15c0,0,1.65-8,7.61-13.38s25.37-4.84,29.05-4.84,19.28-.23,23.85,2.31,4.69,6.68,2.54,10.76l-1,2.15H384l6.85-13.45-9.13,3.15s-4.32,2-5.84,5.15l-1.52,3.54s-2.16,3.77,5.07,4.3l7.44.88s16.79.79,16.28,8.89c0,0,.51,4.69-4.82,12.91s-17.12,9.46-32.6,9.23-29.3.77-28.79-10.07C337,291.47,338.12,286.55,340.28,283.7Z" transform="translate(-107.68 -241.66)"/><path class="cls-3" d="M227.93,300.9H201.67l23-48.52h44.52s15.06-.61,13.87,9c-.76,5.75-17.8,39.42-17.8,39.42H237.06l22.83-46.74-8.75,3.23s-3.17,1.53-4.31,4Z" transform="translate(-107.68 -241.66)"/><path class="cls-3" d="M330.62,291H307s-5.33.46-3.55-4l2.92-6.16h27.39l4.7-9.68H325.68s-9.9-.54-16.88,4.61l5.08-10.69s.89-2.84,6.22-2.84h23.46l4.95-9.84H310.2s-15.85-.39-20.8,9.84l-12,25.75s-6.09,10.92,12,12.84h36.53Z" transform="translate(-107.68 -241.66)"/><path class="cls-3" d="M194.7,251.73c-23.47-.38-29.18.46-35,2.15a18.24,18.24,0,0,0-9,6.07c-12.31,20.69-14.84,31.45-14.84,31.45-1.44,8.5,7.1,10.38,29,10.22s29.43-1.61,35.39-11.38S212.46,264,212.46,264C217.28,251.73,194.7,251.73,194.7,251.73Zm-20.8,37.52c-.64,1.46-1.35,3.17-6.6,3.15-5.75,0-3.55-3.54-3.55-3.54l13.45-28a7.51,7.51,0,0,1,3-3l11-4.38Z" transform="translate(-107.68 -241.66)"/><path class="cls-4" d="M541.43,302.1h-8.29l-5.1,9.11h8.28Zm62.2,36.17a26,26,0,0,1-5-.35,4.19,4.19,0,0,1-2.34-1.16,6.56,6.56,0,0,1-1.18-2.57l-.7-2.78L617,317.05h-11.7l-12.58,8-1.34-4.65a3.74,3.74,0,0,0-2-2.68,10,10,0,0,0-3.94-.65h-9.58l-3.62,6.44h11.33l1.8,6.17-13.63,8.61H523.84a1.64,1.64,0,0,1-1.21-.32c-.19-.21-.22-.64-.11-1.28l10.71-19.62H524.9l-10.49,19.44a15.15,15.15,0,0,0-.78,1.78H474a11.09,11.09,0,0,1-2.62-.2.68.68,0,0,1-.53-.86,8.43,8.43,0,0,1,.5-1.18l6.74-12.3a11.28,11.28,0,0,0,1.18-3.11q.74-4.14-4.92-4.14a16.56,16.56,0,0,0-6.8,1.21,31,31,0,0,0-6.12,3.87l-11.88,9.21,15.5-28.83H456.8l-19.58,36.33H390.46a10.32,10.32,0,0,0,2.71-3.36l6.14-11.42a8.62,8.62,0,0,0,1-2.54,3.32,3.32,0,0,0-1-3.26q-1.39-1.28-5.29-1.27a26.76,26.76,0,0,0-5.67.54,23.44,23.44,0,0,0-4.31,1.51,42.23,42.23,0,0,0-4.41,2.33q-2.15,1.31-4,2.71t-3.34,2.7l5-9.16h-8.28l-11.49,21.22H315.84a4,4,0,0,1-1.29-.17c-.31-.11-.43-.36-.36-.77a3.32,3.32,0,0,1,.26-.66l10.7-19.62H298.6a13,13,0,0,0-5.87,1.11,9.24,9.24,0,0,0-3.77,4.09l-7.46,13.66a15.53,15.53,0,0,0-1,2.36H239a7.15,7.15,0,0,1-3.92-.82,2.31,2.31,0,0,1-.91-2.54,9.54,9.54,0,0,1,1-2.66l3.06-5.8a4.85,4.85,0,0,1,3-2.45,16.59,16.59,0,0,1,4.26-.51l3.66-6.44H225.08l2.7-5-9.11,1.54-13.4,24.69H171.11q-2.87,0-7.15.39a63.39,63.39,0,0,0-7.49,1.09l12.36-22.7H147a26,26,0,0,0-6.49.74,13.8,13.8,0,0,0-5,2.41,13.6,13.6,0,0,0-3.64,4.44l-6.34,11.73a12.31,12.31,0,0,0-1.27,3.38,3.76,3.76,0,0,0,1,3.66,6.08,6.08,0,0,0,4.23,1.3q8.58,0,22-10.82l-4.56,8.16a68.86,68.86,0,0,0-8.07,3.08,34.93,34.93,0,0,0-7.05,4.29,31.92,31.92,0,0,0-9.72,11.94h16.64a12,12,0,0,0,5.5-1,8.24,8.24,0,0,0,3.32-3.67l5.31-10.09q2.47-.58,5.58-1t6.2-.64q3.11-.21,6.12-.21h34.36a8.53,8.53,0,0,0,4.41-1,8.17,8.17,0,0,0,3.08-3.52l9-16.68h9.91l-4.45,8.4a12.48,12.48,0,0,0-1.48,4,6.23,6.23,0,0,0,.91,4.87,8.48,8.48,0,0,0,4.43,3,23.06,23.06,0,0,0,7.17,1h46.09l.06-.07a11.86,11.86,0,0,0,1.24.07,18.85,18.85,0,0,0,5.66-.92,30.74,30.74,0,0,0,5.67-2.47A60.43,60.43,0,0,0,302,338.1c1.6-1.12,3.56-2.56,5.91-4.33l-1.23,2.14a10.36,10.36,0,0,0-1.1,2.84,4,4,0,0,0,.7,3.3,6.27,6.27,0,0,0,3.29,2,18.84,18.84,0,0,0,5.39.67h38.93l-8.6,15.89h8.21l8.67-15.89h79.72L467.17,325a8.7,8.7,0,0,1,2.45-1.69c.1,0,.13.09.1.27a5.22,5.22,0,0,1-.52,1.24l-5.9,10.94a12,12,0,0,0-1.39,3.66,3.51,3.51,0,0,0,1.78,4q2.26,1.29,7.24,1.29h47.23l.1-.11a15,15,0,0,0,1.84.11h49.74s4.33,0,7.3-2.36l10-6.32.61,2.24q1.75,6.44,12.49,6.44h48l3.38-6.44ZM141.09,353.64a3.61,3.61,0,0,1-3.46,2h-3.57a13.92,13.92,0,0,1,2-2,28.67,28.67,0,0,1,3.37-2.49,28.16,28.16,0,0,1,4.18-2.2Zm8.37-24.89q-5.07,3.69-9.79,6.6t-6.3,2.92q-.37,0-.3-.42a4.59,4.59,0,0,1,.58-1.18l5.95-10.79a4.31,4.31,0,0,1,1.73-1.71,5.07,5.07,0,0,1,2.55-.68h12.34Q154.53,325.07,149.46,328.75Zm156.91-1q-3.09,2.31-6.28,4.53t-6.28,4a15.61,15.61,0,0,1-4.38,1.95h-.49a.25.25,0,0,1-.19-.3,3,3,0,0,1,.47-1l7.36-13.48h15.33Q309.45,325.46,306.37,327.77Zm75.76,9.61a11.09,11.09,0,0,1-4.82.89H366.57c1.05-1,2.61-2.41,4.66-4.1s4.33-3.41,6.83-5.19a71.8,71.8,0,0,1,6.89-4.43,11.19,11.19,0,0,1,4.75-1.75c.51,0,.84.08,1,.25a1.32,1.32,0,0,1,.07,1l-5.6,10.28A7.14,7.14,0,0,1,382.13,337.38Z" transform="translate(-107.68 -241.66)"/><path class="cls-4" d="M648.16,307.34a11.33,11.33,0,1,0,11.33,11.33A11.33,11.33,0,0,0,648.16,307.34Zm0,21a9.64,9.64,0,1,1,9.63-9.64A9.64,9.64,0,0,1,648.16,328.31Z" transform="translate(-107.68 -241.66)"/><path class="cls-4" d="M642.94,312.14h7.2c2.4,0,3.91,1.55,3.91,3.43a3.07,3.07,0,0,1-2.11,3.13v0c1.44.35,1.85,1.66,1.94,2.91.06.78,0,2.25.56,2.95h-2.93a12.66,12.66,0,0,1-.47-3,1.9,1.9,0,0,0-2.23-1.88h-2.93v4.87h-2.94Zm2.94,5.63h3.21c1.31,0,2-.52,2-1.78s-.71-1.72-2-1.72h-3.21Z" transform="translate(-107.68 -241.66)"/></svg>