<?xml version="1.0" standalone="no"?>
<!DOCTYPE svg PUBLIC "-//W3C//DTD SVG 20010904//EN"
 "http://www.w3.org/TR/2001/REC-SVG-20010904/DTD/svg10.dtd">
<svg version="1.0" xmlns="http://www.w3.org/2000/svg"
 width="577.000000pt" height="131.000000pt" viewBox="0 0 577.000000 131.000000"
 preserveAspectRatio="xMidYMid meet">

<g transform="translate(0.000000,131.000000) scale(0.100000,-0.100000)"
fill="#000000" stroke="none">
<path d="M560 1293 c-54 -9 -120 -35 -158 -63 -45 -32 -131 -176 -176 -295
-15 -38 -31 -80 -36 -93 -6 -13 -10 -45 -10 -72 0 -41 5 -55 31 -84 16 -19 39
-38 51 -42 18 -5 16 -9 -20 -33 -52 -34 -69 -56 -126 -164 -49 -93 -58 -147
-33 -196 11 -22 7 -35 -35 -119 -25 -52 -44 -101 -41 -108 4 -11 42 -14 183
-14 102 0 191 5 207 11 39 14 70 46 101 101 l26 47 251 3 c258 3 277 6 336 49
13 10 22 8 45 -9 49 -36 127 -44 418 -40 227 3 278 7 315 21 43 17 47 17 80 0
28 -13 70 -18 179 -21 79 -2 142 -7 140 -11 -2 -4 -16 -32 -32 -63 -45 -85
-41 -88 118 -88 100 0 138 3 148 13 7 8 29 44 48 80 l35 67 386 0 386 0 44 34
43 35 29 -25 c16 -13 41 -27 55 -32 15 -4 275 -7 577 -7 539 0 551 0 596 21
l45 21 40 -21 c37 -20 56 -21 359 -24 300 -3 322 -2 336 15 9 10 44 79 79 153
52 112 64 147 68 202 4 59 1 74 -23 123 l-27 56 81 183 c62 139 81 192 81 227
0 86 -57 139 -170 159 -46 8 -400 10 -1215 8 l-1150 -3 -63 -27 -63 -26 -52
26 -51 27 -493 3 c-512 3 -570 0 -649 -38 l-42 -21 -39 20 c-64 34 -134 41
-399 41 -262 0 -273 -2 -286 -42 -4 -10 -8 -10 -19 -2 -39 32 -122 44 -303 43
-100 -1 -192 -4 -206 -6z m445 -118 c67 -33 60 -83 -41 -286 -48 -97 -103
-154 -161 -166 -21 -4 -130 -8 -243 -8 -177 0 -209 2 -237 18 -29 15 -33 23
-33 56 0 42 41 147 98 251 80 147 113 160 397 157 158 -2 185 -4 220 -22z
m2002 -1 c31 -23 39 -56 24 -97 l-11 -27 -125 0 c-69 0 -125 2 -125 5 0 3 14
32 30 65 17 33 28 60 26 60 -3 0 -31 -9 -61 -21 -57 -21 -95 -62 -95 -101 0
-24 10 -28 123 -44 100 -14 137 -29 161 -66 14 -23 -17 -118 -51 -158 -60 -72
-186 -97 -416 -82 -104 7 -132 12 -155 29 -31 23 -40 69 -22 114 l12 29 130 0
c120 0 130 -1 123 -17 -4 -10 -10 -28 -12 -40 -5 -21 -2 -23 36 -23 36 0 44 4
61 33 11 17 20 37 20 43 0 18 -50 35 -131 44 -132 15 -170 47 -143 122 24 70
61 115 108 132 66 24 71 25 273 23 177 -2 194 -4 220 -23z m683 21 c0 -2 -10
-25 -22 -50 l-22 -45 -120 0 c-67 0 -131 -3 -144 -6 -20 -6 -72 -86 -72 -112
0 -5 24 -1 53 9 47 17 227 28 227 14 0 -2 -10 -25 -22 -50 l-22 -45 -136 0
-137 0 -18 -39 c-9 -22 -14 -44 -11 -50 5 -7 54 -11 137 -11 71 0 129 -2 129
-4 0 -2 -9 -25 -20 -50 l-19 -46 -188 0 c-103 0 -205 5 -225 10 -53 15 -81 42
-81 76 0 34 125 309 155 341 20 21 83 47 138 56 35 6 420 8 420 2z m316 -27
c-8 -18 -46 -100 -85 -182 -40 -82 -70 -155 -67 -163 3 -7 20 -13 39 -13 l33
0 94 195 93 195 129 0 c70 0 128 -2 128 -6 0 -12 -122 -270 -133 -281 -7 -6
-86 -55 -176 -107 l-163 -96 -112 0 c-88 0 -120 4 -153 20 -39 17 -43 22 -43
55 0 41 22 97 110 283 l63 132 129 0 128 0 -14 -32z m974 27 c0 -2 -10 -25
-22 -50 l-22 -45 -131 0 c-89 0 -137 -4 -148 -13 -17 -12 -71 -117 -61 -117 3
0 19 8 37 17 31 16 247 33 247 20 0 -4 -10 -27 -22 -52 l-22 -45 -139 0 -138
0 -15 -36 c-26 -61 -20 -64 126 -64 71 0 130 -2 130 -5 0 -2 -10 -25 -22 -50
l-22 -45 -184 0 c-102 0 -203 5 -228 11 -45 12 -84 47 -84 78 0 22 136 310
157 334 26 27 69 48 122 57 50 8 441 13 441 5z m570 -6 c56 -13 80 -34 80 -70
0 -32 -45 -139 -124 -296 l-56 -113 -139 0 -139 0 109 226 c61 125 107 229
104 232 -3 3 -27 -3 -53 -14 -53 -21 -44 -6 -175 -281 l-77 -163 -130 0 c-71
0 -130 2 -130 4 0 1 30 66 66 142 37 76 88 185 115 242 l48 102 228 0 c125 0
248 -5 273 -11z m-3821 -23 c42 -38 32 -73 -86 -318 l-66 -138 -139 0 c-76 0
-138 2 -138 4 0 2 50 104 110 228 61 124 110 228 110 231 0 11 -87 -24 -106
-42 -11 -9 -62 -108 -114 -219 l-95 -202 -128 0 c-151 0 -146 -23 -45 188 39
81 85 180 104 220 l33 73 270 -3 c248 -3 271 -4 290 -22z m671 19 c0 -3 -9
-24 -20 -45 l-20 -40 -126 0 c-69 0 -134 -5 -145 -10 -18 -10 -74 -108 -66
-116 2 -2 21 3 43 12 23 10 81 19 142 22 l104 5 -26 -52 -26 -51 -135 0 -135
0 -19 -39 c-29 -56 -19 -61 130 -61 l128 0 -22 -50 -22 -50 -177 0 c-97 0
-200 5 -227 11 -61 13 -96 49 -87 90 8 43 141 312 163 331 45 40 89 47 321 47
122 1 222 -1 222 -4z m1162 -517 c-32 -55 -122 -225 -122 -232 0 -4 32 18 71
48 79 63 135 85 177 70 40 -14 38 -42 -7 -125 -23 -41 -41 -77 -41 -81 0 -5
94 -8 209 -8 l210 0 56 105 57 105 44 0 45 0 -47 -87 c-26 -49 -51 -92 -56
-98 -4 -5 -8 -13 -8 -17 0 -4 111 -8 248 -8 l247 1 66 42 c63 40 66 43 57 70
-9 25 -14 27 -64 27 -30 0 -54 2 -54 5 0 4 7 19 15 36 16 29 17 30 88 27 68
-3 72 -4 87 -33 8 -16 16 -32 17 -34 1 -2 29 13 62 33 54 33 66 37 118 34 l58
-3 -108 -68 c-87 -56 -107 -73 -107 -92 0 -14 9 -29 19 -35 12 -6 120 -10 280
-10 144 0 261 -2 261 -5 0 -4 -7 -19 -15 -35 l-16 -30 -260 0 c-280 0 -315 5
-340 52 -6 12 -13 24 -15 26 -1 2 -33 -15 -70 -37 l-68 -41 -530 0 c-554 0
-576 2 -584 43 -2 10 15 51 37 92 23 41 40 75 38 75 -2 0 -64 -47 -138 -105
l-134 -105 -400 -2 -399 -3 -42 -75 c-40 -73 -42 -75 -82 -78 -23 -2 -42 0
-42 4 0 3 18 40 41 80 l40 74 -213 0 c-242 0 -263 5 -263 58 0 18 -1 32 -3 32
-2 0 -23 -14 -48 -31 -85 -58 -103 -60 -417 -57 l-285 3 -26 24 c-33 31 -33
58 -1 121 14 27 25 52 25 55 0 3 -20 5 -44 5 l-44 0 -51 -95 c-28 -52 -59 -99
-69 -104 -9 -5 -134 -11 -277 -13 -143 -2 -267 -7 -275 -11 -8 -4 -28 -32 -43
-61 -45 -86 -53 -90 -173 -94 -95 -4 -104 -3 -104 14 0 33 119 138 187 165 41
15 65 31 72 47 16 34 14 35 -18 13 -48 -34 -134 -71 -166 -71 -70 0 -72 46 -7
159 66 116 78 121 254 121 76 0 138 -3 138 -6 0 -3 -25 -54 -57 -112 l-56
-105 48 6 c26 4 135 7 241 7 l192 0 66 124 c65 123 66 123 107 130 49 8 54 5
39 -23 -11 -21 -9 -21 111 -21 l121 0 -19 -32 c-13 -23 -28 -34 -47 -36 -20
-3 -35 -16 -57 -50 -16 -26 -28 -56 -27 -67 3 -19 12 -20 230 -23 l226 -2 49
91 c26 51 58 98 69 106 16 10 57 13 177 11 l155 -3 -50 -90 c-27 -49 -52 -96
-55 -102 -4 -10 42 -13 210 -13 l216 0 56 105 57 105 44 0 45 0 -16 -30 c-20
-38 -19 -47 3 -28 56 50 177 82 220 59 32 -17 27 -44 -22 -132 l-45 -79 228 0
228 0 68 128 c134 250 121 232 172 232 l45 0 -20 -32z m756 -13 c-21 -43 -24
-45 -65 -45 -24 0 -43 2 -43 6 0 3 10 23 23 44 20 37 26 40 64 40 l43 0 -22
-45z m1142 -20 c42 -21 60 -53 60 -103 0 -37 -6 -50 -34 -78 -26 -26 -42 -34
-70 -34 -109 0 -165 121 -88 192 44 41 83 48 132 23z"/>
<path d="M774 1162 c-23 -9 -49 -24 -59 -32 -18 -15 -155 -294 -155 -316 0
-17 32 -26 65 -18 22 5 40 34 116 185 49 98 89 183 89 189 0 13 -7 12 -56 -8z"/>
<path d="M2728 440 c-40 -27 -86 -61 -103 -75 l-30 -25 67 0 c36 0 74 3 82 6
14 6 86 120 86 137 0 17 -35 3 -102 -43z"/>
<path d="M322 453 c-31 -45 -63 -113 -53 -113 12 0 188 117 196 130 4 6 -20
10 -59 10 -59 0 -66 -2 -84 -27z"/>
<path d="M1855 414 c-20 -37 -33 -69 -30 -72 5 -5 205 125 205 134 0 2 -31 4
-69 4 l-69 0 -37 -66z"/>
<path d="M305 195 c-30 -24 -30 -24 -6 -25 22 0 50 24 51 43 0 13 -14 7 -45
-18z"/>
<path d="M5380 623 c-101 -37 -76 -183 30 -183 65 0 111 82 80 141 -19 34 -74
55 -110 42z m81 -39 c9 -12 10 -20 2 -33 -7 -11 -8 -23 -2 -32 13 -21 11 -49
-5 -49 -8 0 -17 11 -20 25 -8 32 -43 34 -48 3 -2 -13 -10 -23 -18 -23 -11 0
-16 15 -18 63 l-3 62 49 0 c33 0 54 -5 63 -16z"/>
<path d="M5390 554 c0 -9 7 -14 17 -12 25 5 28 28 4 28 -12 0 -21 -6 -21 -16z"/>
</g>
</svg>
